<svg width="43" height="30" viewBox="0 0 43 30" fill="none" xmlns="http://www.w3.org/2000/svg">
<path d="M29.9394 13.0556C29.9394 15.363 29.3279 17.6292 28.1671 19.6234C27.0063 21.6176 25.3378 23.2685 23.3314 24.4081C21.325 25.5476 19.0524 26.135 16.7451 26.1105C14.4378 26.086 12.1783 25.4505 10.1965 24.2686" stroke="white" stroke-width="6.11115"/>
<path fill-rule="evenodd" clip-rule="evenodd" d="M6.99701 11.5547C6.77847 12.9936 6.87511 14.473 7.29286 15.888C7.94775 18.1062 9.35129 20.0288 11.2645 21.3284L7.8305 26.3835C4.74816 24.2897 2.48691 21.1921 1.43181 17.6184C0.847297 15.6385 0.652983 13.5803 0.842608 11.5547H6.99701Z" fill="white"/>
<path d="M18.939 14.5547H32.3835V27.9992" stroke="white" stroke-width="6.11115"/>
<rect x="37.2993" y="12.1758" width="5.53428" height="5.53428" rx="2.76714" fill="white"/>
</svg>
